<svg viewBox="0 0 36 48" fill="none" xmlns="http://www.w3.org/2000/svg">
    <path d="M24.2249 13.5048C22.9822 13.1176 21.6864 12.9181 20.3846 12.8829C16.432 12.7714 13.7041 13.8978 11.8402 15.3645C10.9231 16.1095 10.2012 16.8311 9.63314 17.5879C9.61539 17.6113 9.59172 17.6348 9.57988 17.6583V16.3031L9.59763 0H0V29.9839H0.0118343C0.0118343 30.0543 0 30.1188 0 30.1833C0 40.3618 7.63314 47.9941 18.0355 47.9941C28.4379 47.9941 36 40.3618 36 30.1833C36 22.1872 31.2544 15.6871 24.2189 13.5048H24.2249ZM18.0355 39.4935C12.8994 39.4935 9.59172 35.6744 9.59172 30.1833C9.59172 24.6923 12.8994 20.8731 18.0355 20.8731C23.1716 20.8731 26.4793 24.6923 26.4793 30.1833C26.4793 35.6744 23.1716 39.4935 18.0355 39.4935Z" fill="#FF704E" />
</svg>